<?xml version="1.0" encoding="UTF-8"?><svg version="1.1" xmlns="http://www.w3.org/2000/svg" width="160" height="215"><path d="M0 0 C2.06982422 0.15844727 2.06982422 0.15844727 4 1 C4.49066644 4.0109077 4.66377077 6.54129503 4.625 9.5625 C4.61879639 10.41424805 4.61259277 11.26599609 4.60620117 12.14355469 C4.17279912 25.27502645 -0.89581085 37.39589934 -10.5 46.4375 C-26.26345029 59.49615163 -45.77033031 65.64250397 -64.875 72.125 C-89.70940583 80.28873855 -89.70940583 80.28873855 -111.58203125 94.23828125 C-114 96 -114 96 -116.80078125 96.671875 C-117.52652344 96.45015625 -118.25226563 96.2284375 -119 96 C-120.61662946 86.37908324 -117.32782935 76.88559182 -112 69 C-97.03424119 48.63980383 -76.75401948 40.90975209 -53.52783203 33.20043945 C-34.02192568 26.69540197 -13.804498 19.4249905 -1.71875 1.7734375 C-0.86796875 0.89558594 -0.86796875 0.89558594 0 0 Z " fill="#5f33e1" transform="translate(142,10)"/><path d="M0 0 C2.02709961 0.21386719 2.02709961 0.21386719 4 1 C4.46006846 3.90636349 4.61651639 6.33751844 4.5625 9.25 C4.54606445 10.4731189 4.54606445 10.4731189 4.52929688 11.72094727 C4.05410597 25.16225008 -2.05903736 35.83437247 -11.29296875 45.3671875 C-23.90189098 56.66634572 -40.74782142 61.78395388 -56.43212891 67.26489258 C-76.19506032 74.17561781 -96.20672449 81.33256027 -112.73046875 94.53125 C-115 96 -115 96 -119 96 C-120.60525572 83.80727117 -115.40632174 72.69503686 -108.25 63.25 C-93.10148587 44.22310962 -71.59508278 37.06558535 -49.45703125 28.97265625 C-30.94164642 22.16181987 -14.15549621 14.15549621 0 0 Z " fill="#5f33e1" transform="translate(142, 64)"/><path d="M0 0 C1.421875 1.625 1.421875 1.625 1.41796875 5.28515625 C0.61322885 9.73885411 -1.13431479 13.251202 -3.515625 17.0625 C-3.92329102 17.71573242 -4.33095703 18.36896484 -4.75097656 19.04199219 C-14.45377038 34.01562274 -30.90108715 41.15001633 -46.953125 47.75 C-57.98471443 52.30396574 -67.90568531 58.75590099 -77.2109375 66.19140625 C-79.93180311 67.8391912 -81.45513925 68.29500226 -84.578125 67.625 C-86.68861156 59.59034064 -80.78402613 47.60879159 -77.0078125 40.7890625 C-62.72002245 19.19124033 -34.69824715 8.63909533 -10.828125 1.625 C-10.0652417 1.39272705 -9.3023584 1.1604541 -8.51635742 0.92114258 C-5.54514867 0.08877676 -3.07384893 -0.4471053 0 0 Z " fill="#5f33e1" transform="translate(109, 142)"/>
</svg>
